# xmcd
#
# Track frame offsets:
# 182
# 12781
# 25491
# 36551
# 50372
# 64249
# 77418
# 88347
# 100412
# 112792
# 126524
# 140066
# 153646
# 165667
# 177934
# 191728
# 202483
# 216148
# 229278
# 242264
# 253795
# 266000
# 277664
# 290481
#
# Disc length: 4036 seconds
#
# Revision: 0
# Processed by: cddbd v1.5.1PL0 Copyright (c) Steve Scherf et al.
# Submitted via: Axialis_AX_CDPlayer 2.6
#
DISCID=690fc218
DTITLE=Crown Prince Waterford - Crown Prince Waterford  1946-1950
DYEAR=1900
DGENRE=
TTITLE0=Girl Friend Blues
TTITLE1=Satisfied Blues
TTITLE2=The Prince Strikes Back
TTITLE3=Washboard Blues
TTITLE4=Whistler's Blues
TTITLE5=Undercover Blues
TTITLE6=Move Your Hand Baby
TTITLE7=L..A. Blues
TTITLE8=Coal Black Baby
TTITLE9=Weeping Willow Blues
TTITLE10=Strane Woman's Blues
TTITLE11=P.I. Blues
TTITLE12=Crown Prince Blues
TTITLE13=Leaping Boogie
TTITLE14=Eatin' Watermelom
TTITLE15=Love Awhile
TTITLE16=All Over Again
TTITLE17=You Turned  Your Back On Me
TTITLE18=Get Away From My Door
TTITLE19=Pow-Wow Boogie
TTITLE20=I'm Sweet On You
TTITLE21=Kissing Bug Boogie
TTITLE22=Hard Driving Woman
TTITLE23=Time To Blow
EXTD=
EXTT0=
EXTT1=
EXTT2=
EXTT3=
EXTT4=
EXTT5=
EXTT6=
EXTT7=
EXTT8=
EXTT9=
EXTT10=
EXTT11=
EXTT12=
EXTT13=
EXTT14=
EXTT15=
EXTT16=
EXTT17=
EXTT18=
EXTT19=
EXTT20=
EXTT21=
EXTT22=
EXTT23=
PLAYORDER=
